<svg xmlns="http://www.w3.org/2000/svg" width="100%" height="100%">
    <defs>
        <g id="flower">
            <path transform="translate(-12, -12) scale(0.6)" d="M12 1a4 4 0 0 1 4 4l-.002.055l.03-.018a3.97 3.97 0 0 1 2.79-.455l.237.056a3.97 3.97 0 0 1 2.412 1.865a4.01 4.01 0 0 1-1.455 5.461l-.068.036l.071.039a4.01 4.01 0 0 1 1.555 5.27l-.101.186a3.97 3.97 0 0 1-5.441 1.468l-.03-.02L16 19a4 4 0 0 1-3.8 3.995L12 23a4 4 0 0 1-4-4l.001-.056l-.029.019a3.97 3.97 0 0 1-2.79.456l-.236-.056a3.97 3.97 0 0 1-2.413-1.865a4.01 4.01 0 0 1 1.453-5.46l.07-.038l-.071-.038a4.01 4.01 0 0 1-1.555-5.27l.1-.187a3.97 3.97 0 0 1 5.444-1.468L8 5.055V5a4 4 0 0 1 3.8-3.995zm0 8a3 3 0 1 0 0 6a3 3 0 0 0 0-6"/>
        </g>
        <g id="leaf-a">
            <path transform="translate(-12, -12) scale(0.6)" d="M12.455 2.309L12 2.076l-.455.233a12 12 0 0 0-3.09 2.265A14 14 0 0 1 12 7.202a14 14 0 0 1 3.544-2.628a12 12 0 0 0-3.089-2.265m-1.756 6.425a11.98 11.98 0 0 0-6.518-3.536L3 4.98V13a9 9 0 0 0 5.697 8.374A14 14 0 0 1 8 17c0-3.092 1.002-5.95 2.7-8.266M21 4.981l-1.18.217C14.232 6.224 10 11.117 10 17c0 1.536.29 3.007.817 4.36l.24.615c.314.01.629.025.943.025a9 9 0 0 0 9-9z"/>
        </g>
        <g id="leaf-b">
            <path transform="translate(-12, -12) scale(0.55)" d="m12 2.076l.455.233a12.05 12.05 0 0 1 4.402 3.846a12 12 0 0 1 2.962-.957L21 4.98V13a9 9 0 0 1-18 0V4.98l1.18.218c1.041.19 2.035.516 2.963.957a12.05 12.05 0 0 1 4.402-3.846zm-3.122 5.09A12.1 12.1 0 0 1 12 10.363a12.1 12.1 0 0 1 3.122-3.199A10.1 10.1 0 0 0 12 4.337a10.1 10.1 0 0 0-3.122 2.828m2.021 5.268a10.05 10.05 0 0 0-3.908-4.102A10 10 0 0 0 5 7.457V13c0 3.29 2.27 6.05 5.329 6.8A12 12 0 0 1 10 17c0-1.617.32-3.159.9-4.566m1.554 7.552A7 7 0 0 0 19 13V7.457A10 10 0 0 0 12 17c0 1.042.159 2.045.453 2.987"/>
        </g>
        <g id="dot">
            <circle cx="0" cy="0" r="1.5" />
        </g>
        <g id="star">
            <polygon points="0,-3 1.5,-1 3,0 1.5,1 0,3 -1.5,1 -3,0 -1.5,-1" />
        </g>

        <pattern id="seamless-botanical" patternUnits="userSpaceOnUse" width="80" height="80">
            <use href="#flower" x="0" y="0" fill="#8db89d" />
            <use href="#flower" x="80" y="0" fill="#8db89d" />
            <use href="#flower" x="0" y="80" fill="#8db89d" />
            <use href="#flower" x="80" y="80" fill="#8db89d" />
            <use href="#flower" transform="translate(40,40) rotate(45)" fill="#8db89d" />

            <use href="#leaf-a" x="40" y="0" fill="#9fc7ad" />
            <use href="#leaf-a" x="40" y="80" fill="#9fc7ad" />
            <use href="#leaf-a" transform="translate(0,40) rotate(90)" fill="#9fc7ad" />
            <use href="#leaf-a" transform="translate(80,40) rotate(90)" fill="#9fc7ad" />

            <use href="#leaf-b" transform="translate(20,20) rotate(45)" fill="#a9ceb6" />
            <use href="#leaf-b" transform="translate(60,20) rotate(-45)" fill="#a9ceb6" />
            <use href="#leaf-b" transform="translate(20,60) rotate(135)" fill="#a9ceb6" />
            <use href="#leaf-b" transform="translate(60,60) rotate(-135)" fill="#a9ceb6" />

            <g fill="#b8dac3">
                <use href="#dot" x="20" y="0" /><use href="#dot" x="60" y="0" /><use href="#dot" x="20" y="80" /><use href="#dot" x="60" y="80" /><use href="#dot" x="0" y="20" /><use href="#dot" x="0" y="60" /><use href="#dot" x="80" y="20" /><use href="#dot" x="80" y="60" />
            </g>
            <g fill="#b8dac3">
                <use href="#dot" x="40" y="20" /><use href="#dot" x="40" y="60" /><use href="#dot" x="20" y="40" /><use href="#dot" x="60" y="40" />
            </g>

            <g fill="#c6e3cf">
                <use href="#star" x="30" y="30" /><use href="#star" x="50" y="30" /><use href="#star" x="30" y="50" /><use href="#star" x="50" y="50" /><use href="#star" x="10" y="10" /><use href="#star" x="70" y="10" /><use href="#star" x="10" y="70" /><use href="#star" x="70" y="70" />
            </g>
        </pattern>
    </defs>

    <rect width="100%" height="100%" fill="#f2f7f4" />
    <rect width="100%" height="100%" fill="url(#seamless-botanical)" />
</svg>
