<?xml version="1.0" encoding="UTF-8"?>
<svg xmlns="http://www.w3.org/2000/svg" viewBox="0 0 1000 1000" width="1000" height="1000">
    <defs>
        <g id="peonia">
            <g transform="scale(0.5)">
                <g transform="translate(-408.5, -520)">
                    <g transform="translate(0, 1040) scale(0.1, -0.1)" fill="#b08981" fill-opacity="1.0" stroke="none">
                        <path d="M4520 10380 c-164 -23 -379 -89 -518 -159 -108 -54 -244 -146 -332 -223 l-75 -66 -117 58 c-213 105 -384 150 -603 157 -128 4 -165 2 -254 -17 -277 -57 -447 -176 -620 -434 -100 -149 -120 -169 -261 -261 -200 -130 -305 -246 -396 -439 -68 -144 -109 -318 -122 -521 l-7 -100 -150 3 c-122 3 -169 0 -253 -17 -222 -46 -385 -139 -506 -289 -100 -124 -155 -253 -191 -447 -9 -49 -35 -144 -58 -210 l-42 -120 0 -175 c0 -127 5 -200 18 -265 65 -331 213 -646 438 -931 133 -169 388 -407 537 -503 28 -18 52 -36 52 -41 0 -4 -27 -21 -59 -39 -170 -90 -319 -247 -396 -414 -47 -103 -60 -167 -58 -292 0 -89 5 -125 26 -190 62 -190 192 -330 426 -459 160 -88 183 -112 243 -249 70 -161 110 -229 178 -298 151 -154 343 -239 638 -284 129 -20 369 -20 511 0 661 93 1213 514 1457 1112 38 94 64 137 64 105 0 -5 9 -67 20 -138 71 -468 119 -1158 106 -1514 -33 -848 -183 -1648 -447 -2387 -94 -261 -101 -296 -69 -313 45 -24 66 -6 100 82 42 112 193 566 216 653 24 93 177 400 260 522 287 424 673 766 1113 986 156 78 179 100 146 137 -10 11 -26 20 -36 20 -48 0 -329 -151 -499 -268 -282 -194 -589 -498 -767 -759 -31 -46 -58 -82 -59 -80 -5 5 26 135 61 257 105 363 262 646 477 857 103 102 122 117 231 187 153 100 300 158 495 196 138 27 364 36 502 21 127 -15 275 -48 289 -65 7 -9 2 -44 -19 -122 -66 -250 -143 -431 -258 -604 -162 -244 -344 -406 -586 -521 -206 -98 -405 -135 -665 -125 -115 4 -168 3 -177 -5 -23 -19 -16 -57 13 -76 40 -26 387 -26 528 1 119 22 269 73 375 126 292 147 564 430 714 743 84 174 186 516 186 621 0 33 -4 39 -35 52 -105 43 -359 84 -533 84 -455 1 -835 -146 -1127 -435 -134 -133 -243 -282 -325 -444 -47 -94 -65 -112 -56 -55 33 210 60 751 51 1024 -12 373 -42 762 -81 1052 -8 64 -14 128 -12 144 3 25 9 19 78 -71 283 -373 673 -623 1120 -719 444 -95 926 -35 1338 166 145 71 347 212 448 313 80 79 98 104 143 195 31 66 64 156 87 240 47 174 89 256 167 323 143 123 175 154 223 210 103 120 156 235 174 379 26 211 -49 420 -204 566 -57 54 -174 134 -231 158 -19 8 -51 21 -71 29 l-35 15 68 77 c145 165 264 337 362 524 334 637 361 1425 58 1732 -49 50 -84 74 -153 107 -182 86 -218 106 -237 131 -10 14 -34 70 -52 123 -43 125 -85 194 -162 266 -120 113 -279 168 -452 156 -53 -3 -107 -8 -121 -12 -24 -5 -27 -1 -53 79 -122 373 -376 627 -712 712 -38 9 -144 26 -235 36 -191 21 -241 41 -350 135 -225 194 -438 281 -705 289 -71 2 -159 0 -195 -5z m405 -125 c149 -38 272 -105 420 -229 147 -123 206 -146 430 -166 203 -19 327 -60 470 -155 364 -242 540 -810 425 -1370 -33 -161 -139 -475 -160 -475 -5 0 -12 26 -15 58 -13 104 -55 289 -96 419 -142 446 -450 806 -830 970 -234 101 -502 109 -761 23 -88 -30 -230 -96 -280 -132 -24 -16 -34 -17 -90 -8 -35 5 -79 10 -99 10 -33 0 -38 5 -84 76 -127 200 -281 373 -462 516 -56 45 -103 85 -103 88 1 9 154 127 225 173 305 195 714 277 1010 202z m-1901 -221 c316 -55 638 -233 890 -491 108 -112 210 -236 196 -241 -5 -2 -52 13 -105 33 -361 135 -693 122 -1044 -41 -447 -208 -807 -690 -907 -1212 -10 -51 -21 -92 -25 -92 -19 0 -119 126 -157 199 -51 95 -80 116 -149 108 -58 -6 -96 -42 -139 -132 -43 -87 -107 -282 -130 -395 -9 -47 -21 -89 -25 -94 -10 -12 -34 70 -70 244 -26 124 -31 175 -36 345 -6 221 3 319 43 483 68 275 201 459 436 603 129 80 173 123 278 279 136 200 244 294 406 356 162 62 361 79 538 48z m749 -735 c108 -22 318 -98 325 -117 2 -7 -8 -12 -25 -12 -84 0 -302 -88 -424 -171 -140 -95 -282 -256 -358 -406 -30 -60 -34 -64 -121 -109 -150 -77 -296 -229 -370 -385 -16 -35 -33 -79 -36 -96 -3 -18 -10 -33 -14 -33 -12 0 -57 107 -83 200 -74 254 -52 495 65 721 102 199 284 340 513 398 108 27 119 28 283 30 111 1 167 -4 245 -20z m1646 -48 c218 -73 341 -199 412 -421 90 -276 19 -598 -179 -811 -59 -65 -167 -159 -181 -159 -5 0 -11 82 -14 183 -6 186 -20 281 -58 397 -67 202 -224 409 -409 540 -78 55 -228 133 -292 152 -21 6 -38 14 -38 18 0 9 138 72 208 95 102 33 193 45 327 41 115 -3 141 -7 224 -35z m-966 -166 c425 -64 770 -363 871 -755 28 -111 39 -180 29 -180 -5 0 -26 28 -48 61 -22 33 -70 89 -107 124 -182 172 -382 255 -619 255 -199 0 -361 -61 -482 -182 l-71 -71 -95 -17 c-165 -30 -311 -100 -433 -209 -106 -95 -211 -274 -244 -419 -10 -42 -19 -78 -20 -80 -1 -2 -49 15 -106 37 -56 22 -134 51 -173 63 -68 22 -71 25 -98 78 l-27 56 20 79 c70 272 271 465 567 541 87 23 114 25 243 22 l144 -3 10 28 c8 22 6 31 -10 48 -17 17 -38 21 -140 26 -69 3 -148 1 -189 -5 -38 -6 -71 -9 -73 -7 -11 10 89 146 158 216 230 233 566 343 893 294z m2600 -50 c186 -48 300 -163 367 -370 45 -139 68 -167 175 -215 195 -89 218 -102 270 -151 37 -35 68 -77 93 -128 35 -71 37 -80 37 -170 -1 -81 -6 -110 -32 -184 -56 -160 -108 -232 -312 -437 -101 -102 -206 -216 -233 -255 -56 -79 -127 -216 -183 -350 -158 -387 -511 -824 -903 -1117 -140 -106 -255 -182 -236 -157 5 8 35 46 66 84 341 429 536 903 598 1450 12 113 13 448 0 534 -14 102 -64 153 -149 155 -28 1 -51 3 -51 5 0 3 20 43 44 90 79 154 150 387 180 592 21 138 21 394 1 518 -9 52 -12 98 -8 102 23 21 199 24 276 4z m-1059 -174 c221 -266 363 -614 406 -996 5 -49 10 -116 10 -147 l0 -57 -122 -119 c-138 -134 -215 -200 -303 -259 -246 -164 -455 -245 -985 -379 -304 -78 -555 -151 -719 -210 -52 -19 -96 -33 -98 -30 -7 7 30 102 70 180 173 334 437 544 975 775 205 88 271 125 374 210 321 264 444 661 322 1041 -13 41 -24 79 -24 84 0 14 28 -13 94 -93z m-3399 -25 c-54 -149 -68 -246 -62 -421 7 -218 54 -380 165 -570 23 -38 37 -71 33 -73 -31 -11 -403 70 -502 108 -91 36 -98 43 -92 92 6 56 47 221 74 301 71 213 219 463 357 607 27 27 51 50 54 50 4 0 -9 -42 -27 -94z m2144 -361 c74 -18 208 -78 278 -126 70 -48 160 -136 203 -199 73 -108 129 -241 132 -315 2 -49 -14 -60 -172 -126 -69 -29 -151 -65 -182 -81 -69 -34 -78 -35 -78 -5 0 43 -41 173 -81 253 -106 215 -319 381 -561 436 -54 12 -98 25 -98 29 0 3 26 25 58 47 59 41 135 76 201 91 60 15 231 12 300 -4z m-3556 -201 c37 -7 37 -7 37 -53 0 -146 54 -418 125 -627 l55 -162 0 -166 c0 -199 11 -311 51 -509 115 -578 432 -1112 909 -1531 76 -67 71 -67 -110 6 -581 232 -1012 586 -1292 1061 -168 286 -213 336 -440 487 -312 208 -387 291 -396 435 -3 61 0 82 31 165 19 52 46 153 61 225 49 232 109 350 241 473 100 94 226 155 385 187 68 14 279 19 343 9z m3072 -59 c181 -48 354 -165 451 -308 56 -84 125 -271 124 -341 0 -16 -27 -38 -103 -86 -282 -179 -468 -383 -587 -643 -25 -53 -48 -96 -53 -94 -5 1 -21 32 -36 67 -62 148 -170 304 -303 438 -95 96 -184 166 -318 250 l-95 60 3 44 c5 57 46 180 84 248 142 253 416 402 703 383 44 -3 103 -11 130 -18z m-2471 -72 c66 -135 182 -245 341 -323 111 -55 229 -89 415 -120 69 -12 172 -32 230 -45 535 -121 958 -424 1165 -835 37 -73 85 -201 85 -226 0 -7 -15 -17 -33 -23 -52 -17 -248 -139 -336 -209 -185 -146 -334 -339 -422 -546 -56 -131 -80 -239 -86 -387 -6 -155 3 -230 48 -363 16 -49 28 -91 25 -93 -6 -7 -109 64 -199 137 -105 84 -289 269 -380 382 -356 443 -569 983 -613 1553 -8 108 -15 125 -53 125 -47 0 -54 -18 -46 -122 61 -829 471 -1602 1095 -2065 63 -47 120 -90 125 -96 31 -30 -166 56 -300 130 -436 244 -776 584 -1023 1028 -189 338 -293 692 -321 1092 -21 299 34 633 153 937 57 144 85 160 130 69z m6272 -530 c-34 -581 -265 -1094 -690 -1532 -325 -334 -678 -554 -1116 -695 -244 -79 -266 -78 -129 3 325 194 707 548 931 861 119 166 207 324 288 515 103 245 153 315 380 539 160 158 233 251 294 374 41 82 50 69 42 -65z m-1413 -15 c19 -26 21 -46 25 -233 5 -226 -6 -362 -44 -556 -49 -251 -116 -451 -229 -674 -298 -593 -772 -1022 -1396 -1263 -103 -40 -306 -98 -314 -90 -3 2 43 31 101 63 515 291 898 797 1054 1394 19 69 19 76 3 93 -19 21 -56 24 -70 6 -6 -7 -25 -62 -42 -123 -148 -506 -454 -930 -873 -1205 -236 -156 -551 -274 -795 -299 -139 -14 -341 10 -460 54 -130 49 -199 105 -264 216 -234 401 -54 984 411 1329 259 191 530 302 1086 445 645 165 825 226 1059 356 162 90 263 167 435 334 114 110 167 155 200 167 60 22 89 19 113 -14z m-6431 -713 c44 -41 150 -122 236 -179 226 -150 255 -181 421 -459 123 -205 217 -325 380 -488 213 -212 414 -356 706 -504 77 -40 185 -89 241 -111 56 -22 111 -46 124 -55 20 -13 13 -14 -80 -7 -550 41 -1096 294 -1501 698 -306 304 -516 675 -598 1054 -22 100 -25 126 -15 126 3 0 42 -34 86 -75z m7306 -995 c255 -127 386 -315 385 -550 0 -100 -20 -176 -71 -275 -37 -70 -96 -135 -303 -330 -49 -46 -96 -101 -111 -130 -15 -27 -47 -122 -73 -210 -25 -88 -62 -192 -81 -232 -89 -187 -246 -275 -489 -274 -115 0 -197 15 -380 71 -71 22 -161 47 -200 56 -101 24 -253 21 -405 -7 -106 -20 -158 -23 -335 -23 -191 0 -222 2 -339 27 -298 64 -555 197 -774 401 -67 63 -162 171 -162 185 0 4 64 13 143 20 491 43 931 203 1316 479 l83 60 147 27 c289 54 549 139 806 265 232 113 518 312 660 459 21 23 45 41 51 41 7 0 67 -27 132 -60z m-6185 -654 c95 -48 205 -93 314 -129 287 -94 504 -128 840 -132 l222 -2 138 -71 c294 -150 549 -231 873 -277 58 -8 134 -15 170 -15 85 0 97 -8 77 -47 -35 -67 -146 -204 -241 -297 -113 -110 -196 -172 -336 -251 -194 -109 -348 -157 -615 -195 -241 -33 -321 -65 -480 -187 -248 -191 -363 -243 -536 -243 -76 0 -93 4 -147 30 -97 49 -171 136 -243 288 -33 70 -68 143 -77 162 -30 61 -122 141 -223 194 -249 130 -375 277 -416 485 -47 235 75 487 312 648 82 55 187 113 205 113 9 0 82 -33 163 -74z m2587 -957 c-12 -30 -40 -88 -62 -129 -246 -451 -649 -750 -1184 -877 -112 -26 -132 -28 -349 -28 -187 0 -246 3 -315 19 -47 10 -92 22 -100 26 -17 10 -24 6 80 40 87 29 169 75 292 167 229 171 282 195 497 224 268 37 418 81 611 180 163 84 287 175 425 315 66 66 121 120 123 119 1 -1 -7 -27 -18 -56z m574 -114 c381 -249 830 -339 1290 -261 257 44 296 41 666 -64 124 -35 164 -42 273 -47 81 -4 126 -10 124 -16 -10 -31 -326 -174 -477 -216 -182 -50 -304 -65 -525 -66 -220 0 -279 7 -460 52 -340 84 -684 293 -906 549 -39 45 -80 96 -90 113 l-19 32 21 -12 c12 -6 58 -35 103 -64z"/>
                        <path d="M3963 7856 c-131 -43 -244 -162 -272 -288 -13 -55 6 -91 46 -86 30 3 35 11 64 92 45 123 168 203 297 193 128 -10 232 -91 272 -213 18 -52 26 -65 47 -70 42 -11 58 7 57 63 -3 103 -91 221 -211 280 -68 34 -84 37 -167 40 -57 2 -107 -2 -133 -11z"/>
                    </g>
                </g>
            </g>
        </g>
    </defs>

    <use href="#peonia" x="500" y="500" />

    <use href="#peonia" x="0" y="0" />
    <use href="#peonia" x="1000" y="0" />
    <use href="#peonia" x="0" y="1000" />
    <use href="#peonia" x="1000" y="1000" />

</svg>